<?xml version="1.0" standalone="no"?>
<!DOCTYPE svg PUBLIC "-//W3C//DTD SVG 20010904//EN"
 "http://www.w3.org/TR/2001/REC-SVG-20010904/DTD/svg10.dtd">
<svg version="1.0" xmlns="http://www.w3.org/2000/svg"
 width="221.000000pt" height="109.000000pt" viewBox="0 0 221.000000 109.000000"
 preserveAspectRatio="xMidYMid meet">
<metadata>
Created by potrace 1.16, written by Peter Selinger 2001-2019
</metadata>
<g transform="translate(0.000000,109.000000) scale(0.100000,-0.100000)"
 fill="#000000" stroke="none">
<!-- 外框改成藍色 (blue) -->
<path fill="blue" d="M885 1043 c-337 -42 -573 -126 -710 -255 -91 -85 -119 -141 -120 -238 0 -65 4 -82 30 -129 88 -158 361 -296 688 -346 147 -22 390 -30 532 -16 515 49 857 245 859 491 1 81 -25 140 -90 210 -123 132 -381 236 -677 275 -107 14 -426 19 -512 8z m498 -98 c291 -38 518 -130 631 -256 187 -208 -69 -436 -589 -526 -157 -27 -491 -24 -660 6 -150 26 -308 76 -408 128 -127 67 -217 171 -217 251 0 176 287 342 685 396 137 19 418 19 558 1z"/>
<!-- 文字改成紅色 (red) -->
<path fill="red" d="M647 834 c-13 -13 -7 -52 9 -58 22 -9 46 13 42 38 -3 21 -37 34 -51 20z"/>
<path fill="red" d="M1689 674 c-36 -35 -37 -36 -32 -10 7 34 -16 42 -59 21 -44 -23 -68 -45 -68 -62 0 -11 7 -9 27 6 14 12 28 20 30 17 2 -2 -9 -56 -26 -120 -23 -94 -26 -118 -16 -123 35 -13 48 2 70 83 25 95 52 134 118 165 52 25 60 52 17 57 -18 2 -36 -8 -61 -34z"/>
<path fill="red" d="M393 690 c-12 -5 -29 -20 -39 -35 -22 -33 -13 -74 27 -130 26 -36 29 -46 20 -64 -7 -12 -16 -22 -21 -22 -29 -5 -35 -2 -40 20 -3 13 -13 29 -23 35 -15 9 -21 7 -33 -8 -18 -25 -18 -28 7 -60 17 -21 29 -26 65 -26 37 0 51 6 75 29 38 38 38 75 -1 132 -33 48 -38 86 -14 96 8 3 25 -4 37 -15 17 -16 26 -18 40 -11 22 13 22 24 -3 49 -21 21 -60 25 -97 10z"/>
<path fill="red" d="M567 670 c-26 -16 -47 -34 -47 -40 0 -13 16 -13 40 2 10 7 21 10 24 7 3 -2 -6 -42 -20 -89 -13 -46 -24 -97 -24 -112 0 -51 49 -50 110 2 29 25 32 32 20 40 -10 6 -21 3 -37 -12 -30 -28 -29 -18 3 103 15 54 24 105 21 113 -9 24 -38 19 -90 -14z"/>
<path fill="red" d="M747 670 c-26 -16 -47 -37 -47 -45 0 -14 5 -13 30 5 38 27 38 24 5 -114 -14 -58 -25 -108 -25 -111 0 -3 13 -5 29 -5 32 0 31 -1 51 90 7 30 19 67 26 82 12 24 63 68 78 68 11 0 6 -34 -14 -98 -24 -77 -26 -130 -5 -138 21 -8 68 12 95 41 31 33 21 52 -13 25 -16 -12 -30 -20 -32 -18 -3 3 7 44 21 92 14 49 24 100 22 115 -5 41 -45 40 -100 -3 l-46 -34 5 39 c5 34 3 39 -14 39 -10 0 -40 -13 -66 -30z"/>
<path fill="red" d="M1142 683 c-64 -31 -112 -119 -112 -202 0 -87 53 -105 148 -51 68 40 74 69 6 36 -49 -24 -67 -23 -81 4 -14 28 -9 73 14 133 17 41 44 54 84 39 47 -18 82 25 40 48 -28 14 -61 12 -99 -7z"/>
<path fill="red" d="M1369 678 c-69 -46 -121 -198 -89 -259 16 -28 68 -24 121 9 82 53 96 94 15 47 -54 -32 -76 -28 -76 15 0 26 7 33 49 54 53 27 101 77 101 105 0 25 -32 51 -62 51 -14 0 -40 -10 -59 -22z m49 -42 c4 -17 -53 -86 -69 -86 -11 0 7 57 26 87 18 27 38 26 43 -1z"/>
<path fill="red" d="M1829 677 c-70 -47 -121 -197 -89 -258 21 -38 115 -13 169 45 35 37 20 42 -33 11 -54 -32 -76 -28 -76 14 0 26 7 34 43 52 56 28 107 78 107 104 0 28 -30 55 -62 55 -14 0 -40 -10 -59 -23z m49 -41 c4 -17 -53 -86 -70 -86 -9 0 18 78 34 97 14 17 32 12 36 -11z"/>
</g>
</svg>
